<?xml version="1.0" encoding="UTF-8"?>
<svg version="1.1" xmlns="http://www.w3.org/2000/svg" width="1288" height="1295">
<path d="M0 0 C425.04 0 850.08 0 1288 0 C1288 427.35 1288 854.7 1288 1295 C862.96 1295 437.92 1295 0 1295 C0 867.65 0 440.3 0 0 Z " fill="#000000" transform="translate(0,0)"/>
<path d="M0 0 C14.63143606 -0.04704918 29.26286189 -0.08214807 43.89435863 -0.10362434 C50.69042196 -0.11386817 57.48643786 -0.12779375 64.2824707 -0.15087891 C70.8571943 -0.17320135 77.43188742 -0.18461305 84.00664711 -0.18975449 C86.49848512 -0.1934123 88.99032086 -0.20055335 91.48213768 -0.21146011 C119.88086174 -0.33066879 149.50664164 0.74650428 176 12 C176.78391113 12.33161133 177.56782227 12.66322266 178.37548828 13.00488281 C188.92926144 17.55324012 198.21216126 22.5140633 207 30 C208.32064453 31.09634766 208.32064453 31.09634766 209.66796875 32.21484375 C215.54160873 37.27097257 220.41975926 42.75781446 225 49 C225.54527344 49.74121094 226.09054687 50.48242188 226.65234375 51.24609375 C246.98761461 80.27430482 250.04672207 122.6583146 244.62792969 156.57910156 C242.0154546 170.44531549 237.56955872 184.50799113 231 197 C230.38125 198.60875 230.38125 198.60875 229.75 200.25 C218.8811677 225.9612162 194.01064561 245.05260117 169.04296875 255.7890625 C143.67050048 265.88593691 118.19083379 268.77694307 91.015625 268.48828125 C88.36519276 268.47891989 85.71482898 268.47157258 83.06439209 268.46684265 C76.88855846 268.45154453 70.71318846 268.4108573 64.53755546 268.3600952 C57.48511153 268.30343372 50.43264073 268.27652611 43.38002443 268.25161803 C28.91978145 268.19990735 14.45989723 268.11245515 0 268 C0.75458893 264.53109949 1.68909399 262.94292311 4.23828125 260.43359375 C4.89376953 259.78326172 5.54925781 259.13292969 6.22460938 258.46289062 C6.91361328 257.79451172 7.60261719 257.12613281 8.3125 256.4375 C8.98990234 255.76525391 9.66730469 255.09300781 10.36523438 254.40039062 C15.63943471 249.20868023 15.63943471 249.20868023 18.07933044 247.79656982 C20.27646908 246.09965969 20.27646908 246.09965969 20.51898193 243.13362122 C20.52786438 241.96780014 20.53674683 240.80197906 20.54589844 239.60083008 C20.55629276 238.94626422 20.56668709 238.29169836 20.57739639 237.61729717 C20.60651107 235.50111178 20.60846421 233.38589709 20.609375 231.26953125 C20.62500488 229.97511108 20.64063477 228.68069092 20.65673828 227.3470459 C20.70942074 222.50238396 20.72761909 217.65739667 20.75 212.8125 C20.8325 201.984375 20.915 191.15625 21 180 C46.41 180 71.82 180 98 180 C98 206.4 98 232.8 98 260 C118.25624091 259.21805613 118.25624091 259.21805613 135.9765625 251.3046875 C138 250 138 250 141 249 C141.71601076 247.69250208 142.37606888 246.35385826 143 245 C144.052356 243.61722088 145.11609086 242.24306934 146.1875 240.875 C153.61400225 230.23034677 157.15575747 218.11818242 159.3125 205.4375 C159.45969482 204.57302246 159.60688965 203.70854492 159.75854492 202.81787109 C163.07592275 180.87930807 163.29953827 158.80744055 163.19561768 136.67919922 C163.18473541 133.75784237 163.18520124 130.83653092 163.18560791 127.91515732 C163.29571152 100.21908399 163.29571152 100.21908399 160.125 72.75 C159.85502197 71.20807983 159.85502197 71.20807983 159.57958984 69.63500977 C159.06734752 66.75381775 158.53803732 63.87647136 158 61 C157.7628125 59.71480469 157.525625 58.42960938 157.28125 57.10546875 C154.92880822 45.74933613 151.15803871 34.55087853 143.41796875 25.734375 C142 24 142 24 141 21 C139.15239278 19.94041381 139.15239278 19.94041381 137 19 C135.65838474 18.05329569 134.32555628 17.09406198 133 16.125 C122.06619446 8.8594242 111.27060477 8.47451164 98 7 C98 34.72 98 62.44 98 91 C72.59 91 47.18 91 21 91 C21.75 58.25 21.75 58.25 22.14355469 48.04394531 C22.35574113 34.452741 22.46376509 23.85798895 12.72198486 13.58660889 C9.23317103 10.38012507 5.64822865 7.39386739 1.8081665 4.61712646 C0.91312408 3.81664886 0.91312408 3.81664886 0 3 C0 2.01 0 1.02 0 0 Z " fill="#FDFDFD" transform="translate(949,523)"/>
<path d="M0 0 C18.98591936 -0.04690974 37.97182681 -0.08208119 56.95779228 -0.10362434 C65.77510399 -0.11389711 74.59237951 -0.12788008 83.40966797 -0.15087891 C91.10295549 -0.17093619 98.79621678 -0.18374542 106.48952973 -0.18817699 C110.55567371 -0.19076368 114.62174268 -0.19675803 118.6878624 -0.21146011 C150.60554973 -0.32245234 150.60554973 -0.32245234 166 2 C167.73630849 2.20751373 169.47312788 2.41092615 171.2109375 2.60546875 C192.37834588 5.41146644 214.22612421 12.74730137 228 30 C234.23929006 39.29829405 236.39226694 48.22831384 236.3125 59.3125 C236.30686035 60.14064209 236.3012207 60.96878418 236.29541016 61.82202148 C236.1623004 68.58623742 235.29312083 74.60990207 233 81 C232.69851044 81.88577728 232.39702087 82.77155457 232.08639526 83.68417358 C230.70536631 86.74963745 229.48876641 88.71593876 227 91 C221.48432306 92.4313029 216.10498378 92.16687904 210.4453125 91.9765625 C208.81725415 91.95789648 207.18913938 91.94366881 205.56100464 91.9336853 C201.2884033 91.89561414 197.01923586 91.79749887 192.74798584 91.68664551 C188.38454652 91.5840958 184.02054863 91.5386238 179.65625 91.48828125 C171.1025957 91.38123203 162.55172568 91.21071366 154 91 C154.00888245 90.45479706 154.01776489 89.90959412 154.0269165 89.34786987 C154.11634018 83.60392896 154.17612198 77.86018994 154.21972656 72.11572266 C154.23967547 69.98022411 154.26684458 67.84477898 154.30175781 65.70947266 C154.57158962 48.76562259 154.00844359 31.95621517 142.6875 18.1875 C132.41486884 9.82605603 122.48872828 7.59134598 109.375 7.3125 C108.27542969 7.27833984 107.17585938 7.24417969 106.04296875 7.20898438 C103.36208137 7.12739215 100.68148452 7.057959 98 7 C97.89934456 37.02221174 97.84987746 67.04417792 97.87152898 97.06654476 C97.87404209 100.61369893 97.87612032 104.16085322 97.87792969 107.70800781 C97.8782972 108.41416041 97.87866471 109.12031301 97.87904336 109.84786417 C97.88395209 121.27084243 97.85365893 132.69346845 97.81027745 144.11635374 C97.76652588 155.84379566 97.76078686 167.57081557 97.7900821 179.29830468 C97.80489017 185.88301614 97.80220441 192.46666699 97.75750351 199.05126572 C97.71596272 205.25204137 97.72140537 211.45101966 97.76252174 217.65178108 C97.7693769 219.92452621 97.75922436 222.19739779 97.73056984 224.46997261 C97.05491586 236.54905155 97.05491586 236.54905155 101.16974258 247.4737587 C103.6497795 249.97126009 106.14830683 251.95209422 109 254 C110.35140517 255.44370854 111.67196576 256.9179562 112.9375 258.4375 C114.47169475 260.24310022 115.93614074 261.94203998 117.69140625 263.53515625 C119 265 119 265 119 268 C79.73 268 40.46 268 0 268 C1.13429108 263.4628357 2.30303986 262.40134587 5.625 259.25 C9.49176282 255.50511222 13.13401961 251.68893853 16.625 247.59375 C17.69849686 246.34946955 18.83796959 245.16203041 20 244 C20.23074039 241.11677911 20.33523736 238.32614196 20.35490417 235.43917847 C20.37545938 234.09372584 20.37545938 234.09372584 20.39642984 232.72109234 C20.43974146 229.69675477 20.46839613 226.67246083 20.49682617 223.64794922 C20.52407737 221.4864422 20.55197033 219.3249432 20.58045959 217.16345215 C20.82714736 197.38647506 20.94925108 177.6073359 21.04506969 157.82911491 C21.11711932 143.21392076 21.24478954 128.602319 21.44712847 113.98822391 C21.58462671 103.70865509 21.65649047 93.4298431 21.68084508 83.14939129 C21.69722945 77.01280511 21.74228746 70.87962014 21.85854149 64.74404526 C21.9668684 58.95935365 21.99333332 53.17980764 21.95941734 47.39425659 C21.96089021 45.2818434 21.99104118 43.16920535 22.05340958 41.05771255 C22.30744372 31.97725288 22.46272428 24.27327062 16.18914223 17.18011856 C12.64176874 13.64534993 8.87332559 10.46320036 4.86999303 7.4576093 C3.07043483 6.05490205 1.46474183 4.75166713 0 3 C0 2.01 0 1.02 0 0 Z " fill="#FDFDFD" transform="translate(92,523)"/>
<path d="M0 0 C28.38 0 56.76 0 86 0 C91.40007791 10.80015581 96.63212875 21.5809322 101.59765625 32.57226562 C104.36911297 38.64815152 107.30041856 44.54915618 110.60107422 50.35620117 C112.26389321 53.49872594 113.61633784 56.72534022 115 60 C116.10860398 62.40899529 117.22505985 64.81229599 118.35546875 67.2109375 C118.9837629 68.55076299 119.612017 69.89060726 120.24023438 71.23046875 C121.22060173 73.31786207 122.20159452 75.40495821 123.18334961 77.49169922 C124.13818617 79.52235138 125.09071172 81.55407471 126.04296875 83.5859375 C126.48820137 84.52957657 126.48820137 84.52957657 126.94242859 85.49227905 C129 89.88676243 129 89.88676243 129 91 C101.94 91 74.88 91 47 91 C43.35028581 83.70057163 39.75739522 76.45949446 36.45898438 69.00976562 C34.92516759 65.64103639 33.67091952 63.67091952 31 61 C31 71.23 31 81.46 31 92 C28.03 92 25.06 92 22 92 C22.00636475 90.51790039 22.01272949 89.03580078 22.01928711 87.50878906 C22.03381629 81.961998 22.00219479 76.41623063 21.95727539 70.86962891 C21.94420937 68.47806295 21.9433332 66.08639582 21.95532227 63.69482422 C22.28395848 45.08489517 22.28395848 45.08489517 14 29 C13.25687617 27.61975745 12.54916526 26.21941753 11.890625 24.796875 C9.40028896 19.66221627 6.36090685 14.85188606 3.359375 10.00390625 C2.7096875 8.92689453 2.7096875 8.92689453 2.046875 7.828125 C1.65338867 7.1877832 1.25990234 6.54744141 0.85449219 5.88769531 C0 4 0 4 0 0 Z " fill="#FCFCFC" transform="translate(657,523)"/>
<path d="M0 0 C27.72 0 55.44 0 84 0 C83.08244565 3.67021742 82.50867734 4.97349601 80.3125 7.8203125 C79.77882813 8.52027344 79.24515625 9.22023438 78.6953125 9.94140625 C78.13585937 10.66199219 77.57640625 11.38257813 77 12.125 C75.89455164 13.56412056 74.79032531 15.00418087 73.6875 16.4453125 C73.19636719 17.07969238 72.70523438 17.71407227 72.19921875 18.36767578 C69.66749423 21.81374869 69.84789409 24.4107283 69.79467773 28.65283203 C69.78464501 29.3469261 69.77461229 30.04102016 69.76427555 30.75614738 C69.73285128 33.00666828 69.70810332 35.25720677 69.68359375 37.5078125 C69.66519392 38.89575785 69.64635744 40.28369749 69.6270752 41.67163086 C69.55858542 46.82268619 69.49855961 51.97385124 69.4375 57.125 C69.293125 68.63375 69.14875 80.1425 69 92 C43.26 92 17.52 92 -9 92 C-9 80.78 -9 69.56 -9 58 C-9.99 58 -10.98 58 -12 58 C-12.17015625 58.53367187 -12.3403125 59.06734375 -12.515625 59.6171875 C-14.12688391 64.57095159 -15.91962865 69.40768027 -17.88671875 74.23046875 C-19.6421932 78.59759641 -21.28929853 83.00597165 -22.94921875 87.41015625 C-24 90 -24 90 -25 91 C-26.68608966 91.07205511 -28.37500659 91.08386068 -30.0625 91.0625 C-31.44115234 91.04896484 -31.44115234 91.04896484 -32.84765625 91.03515625 C-33.55792969 91.02355469 -34.26820313 91.01195312 -35 91 C-33.63180392 83.65734771 -31.2068386 77.21773553 -28.25 70.375 C-27.34297333 68.23861083 -26.43672119 66.10189265 -25.53125 63.96484375 C-25.09425781 62.93858887 -24.65726563 61.91233398 -24.20703125 60.85498047 C-21.70729333 54.9423722 -19.36289161 48.96833829 -17 43 C-16.00206423 40.49917296 -15.00094488 37.99962387 -14 35.5 C-13.50127384 34.25261546 -13.00257587 33.00521965 -12.50390625 31.7578125 C-11.49324072 29.23081946 -10.47995507 26.70489775 -9.46484375 24.1796875 C-9.20896484 23.54224609 -8.95308594 22.90480469 -8.68945312 22.24804688 C-7.99019717 20.50626386 -7.29005648 18.7648361 -6.58984375 17.0234375 C-4.35370632 11.36441649 -2.18431703 5.67922429 0 0 Z " fill="#FAFAFA" transform="translate(850,523)"/>
<path d="M0 0 C35.31 0 70.62 0 107 0 C105.92550708 4.29797169 105.11135143 5.20255205 102 8.125 C99.10714412 10.77060724 99.10714412 10.77060724 97 14 C96.34 14 95.68 14 95 14 C94.773125 14.556875 94.54625 15.11375 94.3125 15.6875 C92.64103234 18.63246684 90.44723648 20.68156544 88 23 C90.61837731 32.00011294 93.60179324 40.86729227 96.59570312 49.74804688 C98.8684772 56.52006472 101.046488 63.3117492 103.12719727 70.14526367 C103.82150808 72.41619412 104.53183829 74.67914673 105.265625 76.9375 C105.59046875 77.948125 105.9153125 78.95875 106.25 80 C106.75273437 81.546875 106.75273437 81.546875 107.265625 83.125 C108 86 108 86 108 91 C82.26 91 56.52 91 30 91 C26.04 79.45 22.08 67.9 18 56 C17.01 53.69 16.02 51.38 15 49 C14.30165173 46.84333624 13.63392382 44.6764718 13 42.5 C11.9660968 39.05365601 10.91860786 35.810085 9.5 32.5 C7.63257359 28.14267171 6.33591042 23.68734944 4.98046875 19.1484375 C4.18668569 16.59947676 3.31364597 14.15862127 2.3125 11.6875 C1 8 1 8 0 0 Z " fill="#FCFCFC" transform="translate(339,523)"/>
<path d="M0 0 C25.41 0 50.82 0 77 0 C81.95 9.405 81.95 9.405 87 19 C89.03153569 22.73563562 91.06862565 26.4658209 93.125 30.1875 C96.89884585 37.05723372 100.53824086 43.96384545 103.98168945 51.00439453 C107.17920815 57.48578403 110.69122279 63.78963872 114.23266602 70.08837891 C121 82.2027271 121 82.2027271 121 88 C84.37 88 47.74 88 10 88 C11.08865435 83.64538261 11.90590857 82.7777362 15.0703125 79.8125 C16.29041016 78.64074219 16.29041016 78.64074219 17.53515625 77.4453125 C19.26585346 75.8112002 21.00025476 74.18100228 22.73828125 72.5546875 C23.95451172 71.38292969 23.95451172 71.38292969 25.1953125 70.1875 C25.94828613 69.47980469 26.70125977 68.77210938 27.47705078 68.04296875 C29.20662781 66.17351626 29.20662781 66.17351626 28.9128418 64.12573242 C27.71200901 61.3293561 26.49273137 58.55631393 25.19921875 55.80078125 C24.92157181 55.20629684 24.64392487 54.61181244 24.35786438 53.99931335 C23.47107279 52.10212866 22.57949793 50.20724161 21.6875 48.3125 C20.52338546 45.83006021 19.3612262 43.34670789 18.19921875 40.86328125 C17.64403564 39.67790771 17.08885254 38.49253418 16.5168457 37.27124023 C15.26161681 34.56420466 14.03570621 31.8490635 12.8359375 29.1171875 C11.00009259 24.94745276 8.99527581 20.8765081 6.9375 16.8125 C6.42993164 15.80413086 6.42993164 15.80413086 5.91210938 14.77539062 C5.57888672 14.11345703 5.24566406 13.45152344 4.90234375 12.76953125 C4.58249512 12.13225098 4.26264648 11.4949707 3.93310547 10.83837891 C3.05873084 9.1157099 2.15724708 7.40687646 1.25390625 5.69921875 C0 3 0 3 0 0 Z " fill="#FCFCFC" transform="translate(221,703)"/>
<path d="M0 0 C25.74 0 51.48 0 78 0 C78 29.04 78 58.08 78 88 C45.33 88 12.66 88 -21 88 C-20.00931762 84.03727048 -19.69073356 83.3153015 -16.9375 80.6875 C-16.31101562 80.08679688 -15.68453125 79.48609375 -15.0390625 78.8671875 C-12.36643169 76.41983591 -9.65109599 74.02812469 -6.89453125 71.67578125 C-6.26933594 71.12277344 -5.64414062 70.56976562 -5 70 C-3.96827667 69.15964203 -3.96827667 69.15964203 -2.91571045 68.30230713 C-0.37469628 65.24850793 -0.48419757 63.42988171 -0.45410156 59.48730469 C-0.44370724 58.83261829 -0.43331291 58.1779319 -0.42260361 57.50340652 C-0.39355312 55.39263071 -0.39153686 53.28283066 -0.390625 51.171875 C-0.37499512 49.87846191 -0.35936523 48.58504883 -0.34326172 47.25244141 C-0.29063871 42.41848074 -0.27239111 37.58419524 -0.25 32.75 C-0.1675 21.9425 -0.085 11.135 0 0 Z " fill="#FCFCFC" transform="translate(841,703)"/>
<path d="M0 0 C34.32 0 68.64 0 104 0 C103.30322948 4.87739366 102.69872318 8.36947124 101.109375 12.84375 C100.54391968 14.4532251 100.54391968 14.4532251 99.96704102 16.09521484 C99.56541748 17.21879395 99.16379395 18.34237305 98.75 19.5 C97.91991124 21.85653786 97.09047864 24.21330696 96.26171875 26.5703125 C95.66689697 28.25495605 95.66689697 28.25495605 95.06005859 29.97363281 C93.85010287 33.42794214 92.6965351 36.8951089 91.5625 40.375 C88.72450103 48.97861794 85.63140365 57.49293746 82.56469727 66.01708984 C80.29926384 72.32132447 78.08597918 78.63424445 76 85 C75.34 86.98 74.68 88.96 74 91 C65.09 91 56.18 91 47 91 C46.46375 88.07125 45.9275 85.1425 45.375 82.125 C42.20735797 65.9197583 36.79522143 51.51859992 29 37 C28.54625 36.11570312 28.0925 35.23140625 27.625 34.3203125 C24.67761463 28.71640215 21.01073706 23.88498761 17 19 C16.53980469 18.40445313 16.07960938 17.80890625 15.60546875 17.1953125 C11.74142584 12.36247497 7.10372098 8.75910453 2.1953125 5.015625 C1.47085938 4.35046875 0.74640625 3.6853125 0 3 C0 2.01 0 1.02 0 0 Z " fill="#FCFCFC" transform="translate(551,523)"/>
<path d="M0 0 C7.59 0 15.18 0 23 0 C23.66 1.815 24.32 3.63 25 5.5 C34.2521763 29.51906786 48.15411419 51.44665362 66.5390625 69.4921875 C69 72 69 72 70.953125 74.51953125 C74.06231985 78.28735325 77.89530144 81.02186434 81.734375 84.01171875 C82.85585938 84.99591797 82.85585938 84.99591797 84 86 C84 86.66 84 87.32 84 88 C56.28 88 28.56 88 0 88 C0 58.96 0 29.92 0 0 Z " fill="#FCFCFC" transform="translate(679,703)"/>
<path d="M0 0 C25.74 0 51.48 0 78 0 C74.72691293 10.91029024 74.72691293 10.91029024 71.96875 16.14453125 C70.11042 19.70383266 68.60375296 23.41942031 67.171875 27.16796875 C65.33233429 31.94609779 63.27680643 36.50671469 60.9375 41.0625 C55.93403035 50.89615897 51.63747733 61.04880354 47.23779297 71.1628418 C44.62490776 77.15186329 41.9595309 83.11658496 39.25 89.0625 C38.82203125 90.00222656 38.3940625 90.94195313 37.953125 91.91015625 C37.48132813 92.94462891 37.48132813 92.94462891 37 94 C35.35 94 33.7 94 32 94 C27.0867794 80.78520071 22.43108768 67.50655541 18.05883789 54.10229492 C15.92213833 47.53259272 15.92213833 47.53259272 13.36328125 41.12109375 C11.97943347 37.95291502 10.96618051 34.81721974 10 31.5 C8.44777864 26.32136131 8.44777864 26.32136131 6.4375 21.3125 C4.86988578 17.70017157 3.78460865 14.07891895 2.6953125 10.30078125 C1.99737304 7.86589692 1.99737304 7.86589692 0.8125 5.0625 C0 3 0 3 0 0 Z " fill="#FBFBFB" transform="translate(401,703)"/>
<path d="M0 0 C24.42 0 48.84 0 74 0 C73.01 2.97 72.02 5.94 71 9 C70.18191862 11.46471996 69.36420282 13.9295613 68.546875 16.39453125 C59.88493205 42.48752669 59.88493205 42.48752669 55.35693359 55.28491211 C53.2087631 61.36445581 51.16367677 67.47468498 49.14086914 73.59692383 C46.87249253 80.4390255 44.4616067 87.22513555 42 94 C40.35 94 38.7 94 37 94 C35.43598946 90.10477141 33.87382809 86.20880456 32.3125 82.3125 C31.62184448 80.58942627 31.62184448 80.58942627 30.91723633 78.83154297 C28.62902528 73.11202874 26.36357007 67.38807589 24.1875 61.625 C22.78225071 57.92025187 21.25305122 54.33311799 19.5625 50.75 C17.40817401 46.13166366 15.70882288 41.43994886 14.0625 36.625 C11.86923728 30.21566535 9.311451 24.12985945 6.38671875 18.01171875 C3.70446893 12.18632549 1.55479301 6.21917204 0 0 Z " fill="#FBFBFB" transform="translate(520,703)"/>
<path d="M0 0 C33.33 0 66.66 0 101 0 C99.91904072 4.32383711 98.64591075 5.95702027 95.8125 9.3125 C94.60787109 10.77236328 94.60787109 10.77236328 93.37890625 12.26171875 C91 15 91 15 88.96484375 16.95703125 C87.27050699 18.60505357 86.0008268 19.85537115 85 22 C85.33962906 24.58640591 86.06193494 26.61018133 87.1328125 28.984375 C88 31 88 31 88 34 C64.24 34 40.48 34 16 34 C14.35 30.04 12.7 26.08 11 22 C9.84516105 19.50545182 8.66342876 17.02289068 7.4375 14.5625 C6.60025391 12.86287109 6.60025391 12.86287109 5.74609375 11.12890625 C4.09180338 7.95245976 4.09180338 7.95245976 1.78515625 5.27734375 C0 3 0 3 0 0 Z " fill="#FDFDFD" transform="translate(468,580)"/>
<path d="M0 0 C13.2 0 26.4 0 40 0 C38.68617232 3.94148305 37.36852036 7.64741966 35.7578125 11.44921875 C35.33113281 12.46306641 34.90445313 13.47691406 34.46484375 14.52148438 C33.57981129 16.61279285 32.69440178 18.70394179 31.80859375 20.79492188 C29.00269046 27.46420853 26.40305547 34.1750185 24 41 C22.35 41 20.7 41 19 41 C13.33333333 29.66666667 7.66666667 18.33333333 2 7 C1.58927246 6.24041992 1.17854492 5.48083984 0.75537109 4.69824219 C0 3 0 3 0 0 Z " fill="#F8F8F8" transform="translate(749,703)"/>
<path d="M0 0 C1.64630328 0.14042877 3.29204179 0.28749329 4.9375 0.4375 C6.31228516 0.55931641 6.31228516 0.55931641 7.71484375 0.68359375 C10 1 10 1 11 2 C11.33 1.34 11.66 0.68 12 0 C17.445 0.495 17.445 0.495 23 1 C23 1.99 23 2.98 23 4 C21.68 4 20.36 4 19 4 C19.33 4.99 19.66 5.98 20 7 C20.06802967 8.72795352 20.08495645 10.45835365 20.0625 12.1875 C20.05347656 13.08855469 20.04445313 13.98960937 20.03515625 14.91796875 C20.02355469 15.60503906 20.01195312 16.29210937 20 17 C19.01 17 18.02 17 17 17 C17 17.66 17 18.32 17 19 C18.98 19 20.96 19 23 19 C23 19.99 23 20.98 23 22 C21.02 22 19.04 22 17 22 C17 23.32 17 24.64 17 26 C15.68 26 14.36 26 13 26 C13 24.68 13 23.36 13 22 C9.20696275 23.00193437 6.28463659 23.81024227 3 26 C0.3125 25.625 0.3125 25.625 -2 25 C-1.67 24.34 -1.34 23.68 -1 23 C-1.66 22.67 -2.32 22.34 -3 22 C-3 21.01 -3 20.02 -3 19 C-0.69 19 1.62 19 4 19 C4 18.34 4 17.68 4 17 C3.01 17 2.02 17 1 17 C1 13.7 1 10.4 1 7 C1.66 7 2.32 7 3 7 C3 6.34 3 5.68 3 5 C1.02 5.33 -0.96 5.66 -3 6 C-2 4 -1 2 0 0 Z " fill="#C3C3C3" transform="translate(815,648)"/>
<path d="M0 0 C2.84625 -0.061875 5.6925 -0.12375 8.625 -0.1875 C9.51010254 -0.21481201 10.39520508 -0.24212402 11.30712891 -0.27026367 C16.28263308 -0.32233681 19.70417885 0.20161808 24 3 C25.73631636 6.47263273 25.60190402 10.21193013 25 14 C22.81840855 16.75569447 21.12822506 18.43588747 18 20 C16.62451844 20.08308638 15.24514204 20.10736016 13.8671875 20.09765625 C13.14128418 20.09515869 12.41538086 20.09266113 11.66748047 20.09008789 C10.74596191 20.08098389 9.82444336 20.07187988 8.875 20.0625 C5.94625 20.041875 3.0175 20.02125 0 20 C0 13.4 0 6.8 0 0 Z " fill="#F2F2F2" transform="translate(411,652)"/>
<path d="M0 0 C1.32 0 2.64 0 4 0 C4 1.65 4 3.3 4 5 C4.99 5.33 5.98 5.66 7 6 C7.99 4.02 8.98 2.04 10 0 C10.99 0 11.98 0 13 0 C13 1.32 13 2.64 13 4 C15.97 4 18.94 4 22 4 C22.08103404 6.91722548 22.14051081 9.83219516 22.1875 12.75 C22.21263672 13.575 22.23777344 14.4 22.26367188 15.25 C22.33753867 21.35632161 22.33753867 21.35632161 20.65625 24.5625 C19 26 19 26 16.3125 26.25 C15.549375 26.1675 14.78625 26.085 14 26 C14 25.01 14 24.02 14 23 C15.32 23 16.64 23 18 23 C18 22.01 18 21.02 18 20 C14.37 20 10.74 20 7 20 C6.67 19.01 6.34 18.02 6 17 C5.34 17 4.68 17 4 17 C4 19.97 4 22.94 4 26 C2.68 26 1.36 26 0 26 C-0.33 23.69 -0.66 21.38 -1 19 C-1.66 19.33 -2.32 19.66 -3 20 C-2.40075776 15.80530429 -1.42500059 11.99000166 0 8 C-0.99 8 -1.98 8 -3 8 C-3 7.01 -3 6.02 -3 5 C-2.01 5 -1.02 5 0 5 C0 3.35 0 1.7 0 0 Z " fill="#DDDDDD" transform="translate(764,648)"/>
<path d="M0 0 C2.660625 -0.061875 5.32125 -0.12375 8.0625 -0.1875 C8.8862915 -0.21481201 9.71008301 -0.24212402 10.55883789 -0.27026367 C15.79197666 -0.32854195 19.32794391 0.6360513 24 3 C24.25 6.3125 24.25 6.3125 24 10 C22 11.9375 22 11.9375 20 13 C22.27415287 16.37088267 22.27415287 16.37088267 26 18 C25.67 18.99 25.34 19.98 25 21 C22.25 21.375 22.25 21.375 19 21 C18.401875 20.030625 17.80375 19.06125 17.1875 18.0625 C15.37881333 14.85112325 15.37881333 14.85112325 12.75390625 14.37890625 C10.49195423 14.14953514 8.27297807 14.00971358 6 14 C6 16.31 6 18.62 6 21 C4.02 21 2.04 21 0 21 C0 14.07 0 7.14 0 0 Z " fill="#E2E2E2" transform="translate(310,651)"/>
<path d="M0 0 C6.27 0 12.54 0 19 0 C19 3.63 19 7.26 19 11 C14.71 11 10.42 11 6 11 C6 11.66 6 12.32 6 13 C10.95 13 15.9 13 21 13 C20.25 21.625 20.25 21.625 18 25 C15.375 25.1875 15.375 25.1875 13 25 C13 24.34 13 23.68 13 23 C13.99 22.34 14.98 21.68 16 21 C16.72965366 18.43717258 16.72965366 18.43717258 17 16 C14.0702992 18.82506863 11.49825283 21.78796065 9 25 C8.01 24.67 7.02 24.34 6 24 C7.65 21.36 9.3 18.72 11 16 C10.46890625 16.49371094 9.9378125 16.98742187 9.390625 17.49609375 C8.33101562 18.45708984 8.33101562 18.45708984 7.25 19.4375 C6.55390625 20.07558594 5.8578125 20.71367188 5.140625 21.37109375 C3.01207275 22.99081325 1.60976595 23.58267256 -1 24 C-1 23.01 -1 22.02 -1 21 C1.5 18.8125 1.5 18.8125 4 17 C1.69 17.66 -0.62 18.32 -3 19 C-3 16 -3 16 -1.51171875 14.203125 C0.5073493 11.26060723 0.30257507 9.27896877 0.1875 5.75 C0.0946875 2.90375 0.0946875 2.90375 0 0 Z " fill="#F9F9F9" transform="translate(970,649)"/>
<path d="M0 0 C0.99 0 1.98 0 3 0 C3 1.32 3 2.64 3 4 C4.98 4 6.96 4 9 4 C9 4.99 9 5.98 9 7 C7.02 7 5.04 7 3 7 C3 8.32 3 9.64 3 11 C5.31 11 7.62 11 10 11 C10 11.99 10 12.98 10 14 C8.741875 14.04125 7.48375 14.0825 6.1875 14.125 C3.99010474 14.30764489 3.99010474 14.30764489 2 15 C-0.08632697 17.91841857 -0.08632697 17.91841857 -1 21 C0.65 21 2.3 21 4 21 C3.67 20.01 3.34 19.02 3 18 C7 18 7 18 8.8125 19.75 C10 22 10 22 9.6875 24.25 C9.460625 24.8275 9.23375 25.405 9 26 C8.34 26 7.68 26 7 26 C7 25.34 7 24.68 7 24 C6.32453125 24.144375 5.6490625 24.28875 4.953125 24.4375 C4.06109375 24.623125 3.1690625 24.80875 2.25 25 C1.36828125 25.185625 0.4865625 25.37125 -0.421875 25.5625 C-3 26 -3 26 -7 26 C-7.33 24.68 -7.66 23.36 -8 22 C-8.433125 22.495 -8.86625 22.99 -9.3125 23.5 C-11 25 -11 25 -14 25 C-13.39301257 20.87248551 -11.96189209 17.6678852 -10 14 C-10.66 14 -11.32 14 -12 14 C-13.625 12.6875 -13.625 12.6875 -15 11 C-15 10.01 -15 9.02 -15 8 C-12.6568787 8.25561323 -10.32156597 8.59270772 -8 9 C-7.67 9.66 -7.34 10.32 -7 11 C-4.69 11 -2.38 11 0 11 C0 9.68 0 8.36 0 7 C-1.98 7 -3.96 7 -6 7 C-6 6.01 -6 5.02 -6 4 C-4.02 4 -2.04 4 0 4 C0 2.68 0 1.36 0 0 Z " fill="#E4E4E4" transform="translate(879,648)"/>
<path d="M0 0 C0.99 0.495 1.98 0.99 3 1.5 C3 2.82 3 4.14 3 5.5 C-1.875 4.625 -1.875 4.625 -3 3.5 C-8.87646031 3.03668563 -8.87646031 3.03668563 -14 5.5 C-14.41666667 9 -14.41666667 9 -14 12.5 C-11.40599494 15.09400506 -10.16815384 14.82711615 -6.5625 14.875 C-5.59441406 14.90335938 -4.62632812 14.93171875 -3.62890625 14.9609375 C-0.44608886 14.7119514 -0.44608886 14.7119514 2 10.5 C-2.29 10.5 -6.58 10.5 -11 10.5 C-11 9.51 -11 8.52 -11 7.5 C-5.06 7.5 0.88 7.5 7 7.5 C7 11.46 7 15.42 7 19.5 C5.68 19.5 4.36 19.5 3 19.5 C3 18.51 3 17.52 3 16.5 C2.236875 16.995 1.47375 17.49 0.6875 18 C-4.28981967 20.02467241 -8.69371149 20.36601148 -14 19.5 C-17.17052662 17.83454828 -19.37546311 15.74907378 -21 12.5 C-21.79906078 5.53675607 -21.79906078 5.53675607 -19.765625 2.8984375 C-13.85033283 -2.10906231 -7.03953769 -3.03329673 0 0 Z " fill="#EAEAEA" transform="translate(565,652.5)"/>
<path d="M0 0 C8 0 8 0 10.42578125 2.046875 C11.04839844 2.93890625 11.67101562 3.8309375 12.3125 4.75 C12.94800781 5.63171875 13.58351563 6.5134375 14.23828125 7.421875 C14.81964844 8.27265625 15.40101563 9.1234375 16 10 C16.99 11.32 17.98 12.64 19 14 C19.33 9.71 19.66 5.42 20 1 C21.65 1 23.3 1 25 1 C25 7.6 25 14.2 25 21 C19 21 19 21 17.21728516 19.80664062 C16.74597168 19.26201172 16.2746582 18.71738281 15.7890625 18.15625 C15.26699219 17.56972656 14.74492187 16.98320313 14.20703125 16.37890625 C13.68496094 15.75886719 13.16289062 15.13882813 12.625 14.5 C12.07972656 13.87996094 11.53445313 13.25992188 10.97265625 12.62109375 C9.63335717 11.09382287 8.31459575 9.54858528 7 8 C6.67 12.29 6.34 16.58 6 21 C4.02 21 2.04 21 0 21 C0 14.07 0 7.14 0 0 Z " fill="#E8E8E8" transform="translate(493,651)"/>
<path d="M0 0 C1.32 0 2.64 0 4 0 C4.33 0.66 4.66 1.32 5 2 C7.35599235 2.46751788 7.35599235 2.46751788 10.0625 2.625 C11.44115234 2.73714844 11.44115234 2.73714844 12.84765625 2.8515625 C13.55792969 2.90054688 14.26820313 2.94953125 15 3 C15 3.99 15 4.98 15 6 C13.02 6 11.04 6 9 6 C9.825 6.763125 10.65 7.52625 11.5 8.3125 C14 11 14 11 14 14 C13.01 14 12.02 14 11 14 C11 13.34 11 12.68 11 12 C10.360625 11.731875 9.72125 11.46375 9.0625 11.1875 C7 10 7 10 6 7 C4.02 7 2.04 7 0 7 C-0.66 8.32 -1.32 9.64 -2 11 C-1.54625 11.45375 -1.0925 11.9075 -0.625 12.375 C0.58333333 13.58333333 1.79166667 14.79166667 3 16 C3.99 14.68 4.98 13.36 6 12 C6.99 12.33 7.98 12.66 9 13 C8.34 15.31 7.68 17.62 7 20 C9.64 20.99 12.28 21.98 15 23 C14.67 23.99 14.34 24.98 14 26 C7.375 25.25 7.375 25.25 4 23 C0.53581611 23.34641839 -1.04929881 24.03286587 -4 26 C-6.6875 26.125 -6.6875 26.125 -9 26 C-9.33 25.01 -9.66 24.02 -10 23 C-6.04 21.515 -6.04 21.515 -2 20 C-2.33 18.02 -2.66 16.04 -3 14 C-4.65 14 -6.3 14 -8 14 C-8 11 -8 11 -6.5 9.3125 C-6.005 8.879375 -5.51 8.44625 -5 8 C-6.65 7.67 -8.3 7.34 -10 7 C-10 5.68 -10 4.36 -10 3 C-6.7 2.67 -3.4 2.34 0 2 C0 1.34 0 0.68 0 0 Z " fill="#C9C9C9" transform="translate(925,648)"/>
<path d="M0 0 C1.9453125 -0.29296875 1.9453125 -0.29296875 4.125 -0.1875 C5.40375 -0.125625 6.6825 -0.06375 8 0 C9.51012131 2.76543196 11.00630148 5.53816807 12.5 8.3125 C12.92925781 9.09818359 13.35851562 9.88386719 13.80078125 10.69335938 C14.40986328 11.8293457 14.40986328 11.8293457 15.03125 12.98828125 C15.40830078 13.68477783 15.78535156 14.38127441 16.17382812 15.09887695 C17 17 17 17 17 20 C15.02 20 13.04 20 11 20 C10.67 19.01 10.34 18.02 10 17 C8.04233719 16.91917906 6.08373272 16.86089222 4.125 16.8125 C3.03445313 16.77769531 1.94390625 16.74289062 0.8203125 16.70703125 C-0.57574219 16.85205078 -0.57574219 16.85205078 -2 17 C-2.66 17.99 -3.32 18.98 -4 20 C-7.125 20.1875 -7.125 20.1875 -10 20 C-8.71128306 17.22776008 -7.41916616 14.4571947 -6.125 11.6875 C-5.57779297 10.50897461 -5.57779297 10.50897461 -5.01953125 9.30664062 C-4.66503906 8.54931641 -4.31054688 7.79199219 -3.9453125 7.01171875 C-3.62062988 6.31522217 -3.29594727 5.61872559 -2.96142578 4.90112305 C-2 3 -2 3 0 0 Z " fill="#DCDCDC" transform="translate(369,652)"/>
<path d="M0 0 C3.3 0 6.6 0 10 0 C10 7.26 10 14.52 10 22 C10.66 22 11.32 22 12 22 C12 20.68 12 19.36 12 18 C12.66 18 13.32 18 14 18 C14.04254356 19.99954746 14.04080783 22.00041636 14 24 C13 25 13 25 10.5 25.125 C8 25 8 25 7 24 C6.91314397 22.43827255 6.89297781 20.87270656 6.90234375 19.30859375 C6.90556641 18.36435547 6.90878906 17.42011719 6.91210938 16.44726562 C6.92048828 15.45404297 6.92886719 14.46082031 6.9375 13.4375 C6.94201172 12.44041016 6.94652344 11.44332031 6.95117188 10.41601562 C6.96299993 7.94395151 6.97948151 5.47200482 7 3 C5.68 3 4.36 3 3 3 C3.03480469 3.67804687 3.06960938 4.35609375 3.10546875 5.0546875 C3.30543812 11.92982497 2.35212019 17.54567018 0 24 C-1.32 24 -2.64 24 -4 24 C-3.690625 23.236875 -3.38125 22.47375 -3.0625 21.6875 C-1.20880679 16.99874658 -0.7034564 12.80463245 -0.4375 7.8125 C-0.39431641 7.06291016 -0.35113281 6.31332031 -0.30664062 5.54101562 C-0.20077315 3.69421625 -0.0999024 1.84713166 0 0 Z " fill="#EBEBEB" transform="translate(722,649)"/>
<path d="M0 0 C10.19694397 -0.48556876 10.19694397 -0.48556876 13.6875 1.625 C15.39437743 4.71363535 15.59152429 6.52479479 15 10 C12.72923956 12.27076044 11.41993272 12.95601263 8.203125 13.29296875 C5.46875 13.1953125 2.734375 13.09765625 0 13 C0 8.71 0 4.42 0 0 Z " fill="#1A1A1A" transform="translate(416,655)"/>
<path d="M0 0 C0 4.48043814 -1.31514574 6.29758537 -4.4375 9.5 C-5.283125 10.325 -6.12875 11.15 -7 12 C-7.99 13.32 -8.98 14.64 -10 16 C27.62 16.33 65.24 16.66 104 17 C104.33 16.34 104.66 15.68 105 15 C105 15.99 105 16.98 105 18 C65.73 18 26.46 18 -14 18 C-12.84797722 13.39190888 -11.50757877 12.21590097 -8.125 9 C-5.13163967 6.13754464 -2.37638147 3.39932713 0 0 Z " fill="#E0E0E0" transform="translate(106,773)"/>
<path d="M0 0 C1.79133978 -0.05391993 3.58313899 -0.09275571 5.375 -0.125 C6.37273437 -0.14820313 7.37046875 -0.17140625 8.3984375 -0.1953125 C11 0 11 0 13 2 C13.144375 3.11375 13.28875 4.2275 13.4375 5.375 C13.99810337 8.98777726 14.46013589 10.46013589 17 13 C17.99 13.33 18.98 13.66 20 14 C19.67 14.99 19.34 15.98 19 17 C16.25 17.375 16.25 17.375 13 17 C12.401875 16.030625 11.80375 15.06125 11.1875 14.0625 C9.37881333 10.85112325 9.37881333 10.85112325 6.75390625 10.37890625 C4.49195423 10.14953514 2.27297807 10.00971358 0 10 C0 9.67 0 9.34 0 9 C1.98 8.67 3.96 8.34 6 8 C3.03 7.505 3.03 7.505 0 7 C0 4.69 0 2.38 0 0 Z " fill="#D9D9D9" transform="translate(316,655)"/>
<path d="M0 0 C2.97 0 5.94 0 9 0 C9 4.95 9 9.9 9 15 C8.67 14.34 8.34 13.68 8 13 C4.37 13 0.74 13 -3 13 C-3.33 12.01 -3.66 11.02 -4 10 C-4.66 10 -5.32 10 -6 10 C-5.67 9.34 -5.34 8.68 -5 8 C-5 5.37886292 -5.31292445 3.49064888 -6 1 C-4 1 -4 1 -2.375 2.5 C-1.92125 2.995 -1.4675 3.49 -1 4 C-0.67 2.68 -0.34 1.36 0 0 Z " fill="#393939" transform="translate(774,655)"/>
<path d="M0 0 C0.66 0.66 1.32 1.32 2 2 C3.96690374 2.67292501 3.96690374 2.67292501 6.125 3.125 C7.40375 3.41375 8.6825 3.7025 10 4 C10 4.33 10 4.66 10 5 C4.06 5 -1.88 5 -8 5 C-8 5.99 -8 6.98 -8 8 C-3.71 8 0.58 8 5 8 C3 12 3 12 2 13 C0.2127943 13.15135944 -1.58161876 13.22175778 -3.375 13.25 C-4.84066406 13.28867187 -4.84066406 13.28867187 -6.3359375 13.328125 C-9 13 -9 13 -10.82421875 11.703125 C-12.81458737 8.82006614 -12.42135799 6.37086393 -12 3 C-8.8687752 -1.0444987 -4.68875683 -0.37812555 0 0 Z " fill="#171717" transform="translate(562,655)"/>
<path d="M0 0 C7.26 0 14.52 0 22 0 C22 0.99 22 1.98 22 3 C19.36 3 16.72 3 14 3 C14 8.61 14 14.22 14 20 C12.35 20 10.7 20 9 20 C9 14.39 9 8.78 9 3 C6.03 3 3.06 3 0 3 C0 2.01 0 1.02 0 0 Z " fill="#FCFCFC" transform="translate(263,652)"/>
<path d="M0 0 C0.99 0 1.98 0 3 0 C3 1.65 3 3.3 3 5 C3.99 5 4.98 5 6 5 C6 5.99 6 6.98 6 8 C5.01 8 4.02 8 3 8 C3.680625 8.763125 4.36125 9.52625 5.0625 10.3125 C5.701875 11.199375 6.34125 12.08625 7 13 C6.67 13.99 6.34 14.98 6 16 C5.34 15.67 4.68 15.34 4 15 C3.67 18.63 3.34 22.26 3 26 C2.01 26 1.02 26 0 26 C-0.33 23.36 -0.66 20.72 -1 18 C-1.33 18.66 -1.66 19.32 -2 20 C-2.66 20 -3.32 20 -4 20 C-3.49202991 15.6822542 -2.80317221 11.96697886 -1 8 C-1.99 8 -2.98 8 -4 8 C-4 7.01 -4 6.02 -4 5 C-2.68 5 -1.36 5 0 5 C0 3.35 0 1.7 0 0 Z " fill="#ECECEC" transform="translate(714,648)"/>
<path d="M0 0 C0.33 0.66 0.66 1.32 1 2 C0.34 3.32 -0.32 4.64 -1 6 C34.31 6.33 69.62 6.66 106 7 C106 7.33 106 7.66 106 8 C69.37 8 32.74 8 -5 8 C-3.95206337 3.80825346 -3.08236365 2.78407039 0 0 Z " fill="#DFDFDF" transform="translate(236,783)"/>
<path d="M0 0 C6.27 0 12.54 0 19 0 C19 3.63 19 7.26 19 11 C18.67 11 18.34 11 18 11 C18 7.7 18 4.4 18 1 C12.39 1 6.78 1 1 1 C1.33 1.66 1.66 2.32 2 3 C2.33 2.67 2.66 2.34 3 2 C5.01964199 1.92755947 7.04167124 1.91622812 9.0625 1.9375 C10.71958984 1.95103516 10.71958984 1.95103516 12.41015625 1.96484375 C13.26480469 1.97644531 14.11945312 1.98804688 15 2 C15 4.33333333 15 6.66666667 15 9 C10.71 9 6.42 9 2 9 C2.33 9.33 2.66 9.66 3 10 C2.67 10.99 2.34 11.98 2 13 C2 12.34 2 11.68 2 11 C1.34 11 0.68 11 0 11 C0 7.37 0 3.74 0 0 Z " fill="#919191" transform="translate(970,649)"/>
<path d="M0 0 C0.99 0 1.98 0 3 0 C4.51012131 2.76543196 6.00630148 5.53816807 7.5 8.3125 C7.92925781 9.09818359 8.35851562 9.88386719 8.80078125 10.69335938 C9.20683594 11.45068359 9.61289062 12.20800781 10.03125 12.98828125 C10.40830078 13.68477783 10.78535156 14.38127441 11.17382812 15.09887695 C12 17 12 17 12 20 C10.02 20 8.04 20 6 20 C5.67 18.35 5.34 16.7 5 15 C1.7 15 -1.6 15 -5 15 C-4.67 14.34 -4.34 13.68 -4 13 C-1.69 13 0.62 13 3 13 C2.505 11.96875 2.01 10.9375 1.5 9.875 C0.02526098 6.47548422 -0.27291106 3.72978451 0 0 Z " fill="#EBEBEB" transform="translate(374,652)"/>
<path d="M0 0 C5.94 0 11.88 0 18 0 C18 3.96 18 7.92 18 12 C16.68 12 15.36 12 14 12 C14 11.01 14 10.02 14 9 C12.35 9.66 10.7 10.32 9 11 C9 10.34 9 9.68 9 9 C6.36 9 3.72 9 1 9 C1 8.67 1 8.34 1 8 C1.61488281 7.97421875 2.22976563 7.9484375 2.86328125 7.921875 C3.67152344 7.86515625 4.47976563 7.8084375 5.3125 7.75 C6.11300781 7.70359375 6.91351562 7.6571875 7.73828125 7.609375 C10.57040227 7.09552228 10.57040227 7.09552228 13 3 C8.71 3 4.42 3 0 3 C0 2.01 0 1.02 0 0 Z " fill="#E5E6E6" transform="translate(554,660)"/>
<path d="M0 0 C2.31 0.33 4.62 0.66 7 1 C7.33 2.65 7.66 4.3 8 6 C9.65 6 11.3 6 13 6 C11.7874262 9.72433382 10.49140021 13.37802806 9 17 C9.99 17.33 10.98 17.66 12 18 C10.68 18 9.36 18 8 18 C7.67 16.68 7.34 15.36 7 14 C6.566875 14.495 6.13375 14.99 5.6875 15.5 C4 17 4 17 1 17 C1.60698743 12.87248551 3.03810791 9.6678852 5 6 C4.34 6 3.68 6 3 6 C1.375 4.6875 1.375 4.6875 0 3 C0 2.01 0 1.02 0 0 Z " fill="#1E1E1E" transform="translate(864,656)"/>
<path d="M0 0 C1.32 0 2.64 0 4 0 C4.33 0.66 4.66 1.32 5 2 C7.35599235 2.46751788 7.35599235 2.46751788 10.0625 2.625 C11.44115234 2.73714844 11.44115234 2.73714844 12.84765625 2.8515625 C13.55792969 2.90054688 14.26820313 2.94953125 15 3 C15 3.99 15 4.98 15 6 C13.02 6 11.04 6 9 6 C9.825 6.763125 10.65 7.52625 11.5 8.3125 C14 11 14 11 14 14 C13.01 14 12.02 14 11 14 C11 13.34 11 12.68 11 12 C10.360625 11.71125 9.72125 11.4225 9.0625 11.125 C7 10 7 10 6 8 C6.33 7.34 6.66 6.68 7 6 C1.72 6 -3.56 6 -9 6 C-9 5.34 -9 4.68 -9 4 C-5.7 4 -2.4 4 1 4 C0.67 2.68 0.34 1.36 0 0 Z " fill="#E9E9E9" transform="translate(925,648)"/>
<path d="M0 0 C1.32 0 2.64 0 4 0 C4 8.58 4 17.16 4 26 C2.68 26 1.36 26 0 26 C0 17.42 0 8.84 0 0 Z " fill="#DDDDDD" transform="translate(639,648)"/>
<path d="M0 0 C1.65 0 3.3 0 5 0 C5 6.6 5 13.2 5 20 C3.35 20 1.7 20 0 20 C0 13.4 0 6.8 0 0 Z " fill="#FBFBFB" transform="translate(462,652)"/>
<path d="M0 0 C3.16115776 1.36983503 3.9927092 1.9890638 6 5 C5.625 7.1875 5.625 7.1875 5 9 C4.34 9 3.68 9 3 9 C3 8.34 3 7.68 3 7 C2.01 7.33 1.02 7.66 0 8 C-1.72795352 8.06802967 -3.45835365 8.08495645 -5.1875 8.0625 C-6.53908203 8.04896484 -6.53908203 8.04896484 -7.91796875 8.03515625 C-8.60503906 8.02355469 -9.29210937 8.01195312 -10 8 C-9.125 3.25 -9.125 3.25 -8 1 C-6.68 1.33 -5.36 1.66 -4 2 C-4.33 2.66 -4.66 3.32 -5 4 C-3.35 4 -1.7 4 0 4 C-0.33 3.01 -0.66 2.02 -1 1 C-0.67 0.67 -0.34 0.34 0 0 Z " fill="#CACACA" transform="translate(883,665)"/>
<path d="M0 0 C3.33333333 0 6.66666667 0 10 0 C10 2.97 10 5.94 10 9 C9.67 7.68 9.34 6.36 9 5 C5.20696275 6.00193437 2.28463659 6.81024227 -1 9 C-3.6875 8.625 -3.6875 8.625 -6 8 C-5.67 7.34 -5.34 6.68 -5 6 C-5.66 5.67 -6.32 5.34 -7 5 C-7 4.01 -7 3.02 -7 2 C-4.69 2 -2.38 2 0 2 C0 1.34 0 0.68 0 0 Z " fill="#B2B2B2" transform="translate(819,665)"/>
<path d="M0 0 C0.66 1.65 1.32 3.3 2 5 C1.01 5.495 1.01 5.495 0 6 C-0.46751788 8.35599235 -0.46751788 8.35599235 -0.625 11.0625 C-0.69976563 11.98160156 -0.77453125 12.90070312 -0.8515625 13.84765625 C-0.90054688 14.55792969 -0.94953125 15.26820313 -1 16 C-2.32 16 -3.64 16 -5 16 C-5.33 13.69 -5.66 11.38 -6 9 C-6.99 9.495 -6.99 9.495 -8 10 C-7.67895459 6.46850054 -7.34914783 4.44225392 -5.125 1.625 C-3 0 -3 0 0 0 Z " fill="#E6E6E6" transform="translate(769,658)"/>
<path d="M0 0 C2.31 0 4.62 0 7 0 C7.08107646 2.75059381 7.14052813 5.49879021 7.1875 8.25 C7.22520508 9.41595703 7.22520508 9.41595703 7.26367188 10.60546875 C7.30864201 14.11313936 7.32397047 16.38973005 5.65625 19.53125 C4 21 4 21 1.3125 21.25 C0.549375 21.1675 -0.21375 21.085 -1 21 C-1 20.01 -1 19.02 -1 18 C0.32 17.67 1.64 17.34 3 17 C3.33 12.05 3.66 7.1 4 2 C2.68 1.67 1.36 1.34 0 1 C0 0.67 0 0.34 0 0 Z " fill="#E8E8E8" transform="translate(779,653)"/>
<path d="M0 0 C5.61 0 11.22 0 17 0 C17 3.3 17 6.6 17 10 C10.565 10.495 10.565 10.495 4 11 C4 10.34 4 9.68 4 9 C7.21451269 7.39274365 10.43612536 7.94251815 14 8 C14 7.01 14 6.02 14 5 C10.04 5 6.08 5 2 5 C2 4.67 2 4.34 2 4 C6.29 4 10.58 4 15 4 C14.67 3.34 14.34 2.68 14 2 C12.04196493 1.94610913 10.08351091 1.90725783 8.125 1.875 C7.03445313 1.85179687 5.94390625 1.82859375 4.8203125 1.8046875 C1.8628949 1.69939466 1.8628949 1.69939466 0 4 C0 2.68 0 1.36 0 0 Z " fill="#F7F7F7" transform="translate(971,650)"/>
<path d="M0 0 C1.79133978 -0.05391993 3.58313899 -0.09275571 5.375 -0.125 C6.37273437 -0.14820313 7.37046875 -0.17140625 8.3984375 -0.1953125 C11 0 11 0 13 2 C12.67 3.32 12.34 4.64 12 6 C8.04 6 4.08 6 0 6 C0 4.02 0 2.04 0 0 Z " fill="#131313" transform="translate(316,655)"/>
<path d="M0 0 C0.33 1.32 0.66 2.64 1 4 C1.99 4 2.98 4 4 4 C4.33 3.01 4.66 2.02 5 1 C5.738041 17.8929385 5.738041 17.8929385 1 25 C0.67 25 0.34 25 0 25 C0 21.37 0 17.74 0 14 C0.99 14.33 1.98 14.66 3 15 C2.690625 14.401875 2.38125 13.80375 2.0625 13.1875 C1 11 1 11 0 8 C0.99 8 1.98 8 3 8 C3 7.01 3 6.02 3 5 C2.01 5 1.02 5 0 5 C0 3.35 0 1.7 0 0 Z " fill="#414141" transform="translate(717,648)"/>
<path d="M0 0 C0.33 0 0.66 0 1 0 C1 3.3 1 6.6 1 10 C0.01 10 -0.98 10 -2 10 C-2 10.66 -2 11.32 -2 12 C-0.02 12 1.96 12 4 12 C4 12.99 4 13.98 4 15 C2.02 15 0.04 15 -2 15 C-2 16.32 -2 17.64 -2 19 C-2.99 19 -3.98 19 -5 19 C-5 17.35 -5 15.7 -5 14 C-7.31 14 -9.62 14 -12 14 C-12 13.67 -12 13.34 -12 13 C-9.69 13 -7.38 13 -5 13 C-5.33 11.68 -5.66 10.36 -6 9 C-4.02 9 -2.04 9 0 9 C0 6.03 0 3.06 0 0 Z " fill="#E9E9E9" transform="translate(834,655)"/>
<path d="M0 0 C4.48639646 0.89727929 5.5224544 2.95081798 8.125 6.625 C6.45833333 6.625 4.79166667 6.625 3.125 6.625 C1.75189293 7.91733607 0.41465176 9.24937146 -0.875 10.625 C-1.143125 9.820625 -1.41125 9.01625 -1.6875 8.1875 C-2.079375 7.341875 -2.47125 6.49625 -2.875 5.625 C-3.865 5.295 -4.855 4.965 -5.875 4.625 C-4.19190101 1.63282402 -3.41978571 0.74343168 0 0 Z " fill="#161616" transform="translate(927.875,654.375)"/>
<path d="M0 0 C0.99 0 1.98 0 3 0 C3 1.32 3 2.64 3 4 C4.98 4 6.96 4 9 4 C9 4.99 9 5.98 9 7 C6.69 7 4.38 7 2 7 C1.34 8.32 0.68 9.64 0 11 C0 9.68 0 8.36 0 7 C-1.98 7 -3.96 7 -6 7 C-6 6.01 -6 5.02 -6 4 C-4.02 4 -2.04 4 0 4 C0 2.68 0 1.36 0 0 Z " fill="#EBEBEB" transform="translate(879,648)"/>
<path d="M0 0 C5.28 0.33 10.56 0.66 16 1 C15.25 9.625 15.25 9.625 13 13 C10.375 13.1875 10.375 13.1875 8 13 C8 12.34 8 11.68 8 11 C8.99 10.34 9.98 9.68 11 9 C11.72965366 6.43717258 11.72965366 6.43717258 12 4 C9.56612247 2.78306124 7.58161154 2.68040104 4.875 2.4375 C3.96492187 2.35371094 3.05484375 2.26992188 2.1171875 2.18359375 C1.41851563 2.12300781 0.71984375 2.06242188 0 2 C0 1.34 0 0.68 0 0 Z " fill="#DCDCDC" transform="translate(975,661)"/>
<path d="M0 0 C0.66 0 1.32 0 2 0 C1.47731534 2.76276177 0.89130413 5.3260876 0 8 C0.66 8 1.32 8 2 8 C2 7.01 2 6.02 2 5 C3.32 5.33 4.64 5.66 6 6 C6 7.65 6 9.3 6 11 C2.7 11 -0.6 11 -4 11 C-3.39301257 6.87248551 -1.96189209 3.6678852 0 0 Z " fill="#E0E0E0" transform="translate(775,657)"/>
<path d="M0 0 C3.3 0.33 6.6 0.66 10 1 C10 2.98 10 4.96 10 7 C8.68 7 7.36 7 6 7 C6 5.68 6 4.36 6 3 C5.34 3 4.68 3 4 3 C3.67 3.66 3.34 4.32 3 5 C-0.0625 5.625 -0.0625 5.625 -3 6 C-2 4 -1 2 0 0 Z " fill="#D4D4D4" transform="translate(815,648)"/>
<path d="M0 0 C1.32 0.66 2.64 1.32 4 2 C4 4.31 4 6.62 4 9 C2.02 9.99 2.02 9.99 0 11 C-1.96602468 8.05096298 -2.73897585 6.48032201 -3 3 C-1.5625 1.1875 -1.5625 1.1875 0 0 Z " fill="#EBEBEB" transform="translate(330,652)"/>
<path d="M0 0 C2.64 0 5.28 0 8 0 C8.88935377 3.303314 9.46274105 6.62294375 10 10 C8.7010161 9.09373216 7.41106833 8.17450463 6.125 7.25 C5.40570312 6.73953125 4.68640625 6.2290625 3.9453125 5.703125 C1.91429435 3.92496453 1.02144988 2.47298393 0 0 Z " fill="#E7E7E7" transform="translate(551,524)"/>
<path d="M0 0 C2.64 0 5.28 0 8 0 C8 0.99 8 1.98 8 3 C6.68 3 5.36 3 4 3 C3.67 3.99 3.34 4.98 3 6 C1.02 6 -0.96 6 -3 6 C-2.67 5.01 -2.34 4.02 -2 3 C-1.34 3 -0.68 3 0 3 C0 2.01 0 1.02 0 0 Z " fill="#B7B7B7" transform="translate(830,649)"/>
<path d="M0 0 C0.66 0 1.32 0 2 0 C5 5.75 5 5.75 5 8 C2.36 8 -0.28 8 -3 8 C-1.125 1.125 -1.125 1.125 0 0 Z " fill="#1E1E1E" transform="translate(372,656)"/>
<path d="M0 0 C0.33 0 0.66 0 1 0 C1 5.28 1 10.56 1 16 C2.32 16.33 3.64 16.66 5 17 C5 18.65 5 20.3 5 22 C4.67 20.68 4.34 19.36 4 18 C3.34 18 2.68 18 2 18 C2 19.32 2 20.64 2 22 C1.34 22 0.68 22 0 22 C0 14.74 0 7.48 0 0 Z " fill="#262626" transform="translate(732,649)"/>
<path d="M0 0 C1.32 0 2.64 0 4 0 C2.94124926 3.40312738 1.99097846 6.01353231 0 9 C-0.99 9 -1.98 9 -3 9 C-2.44271087 5.65626525 -1.64826111 2.96687001 0 0 Z " fill="#D8D8D8" transform="translate(868,664)"/>
<path d="M0 0 C0.66 0 1.32 0 2 0 C2 1.65 2 3.3 2 5 C1.360625 5.28875 0.72125 5.5775 0.0625 5.875 C-2.15206079 6.82823451 -2.15206079 6.82823451 -3 9 C-5.0625 9.625 -5.0625 9.625 -7 10 C-6.02223933 8.51990357 -5.0427506 7.04094856 -4.0625 5.5625 C-3.51722656 4.73878906 -2.97195313 3.91507813 -2.41015625 3.06640625 C-1 1 -1 1 0 0 Z " fill="#303030" transform="translate(985,665)"/>
<path d="M0 0 C1.32 0.33 2.64 0.66 4 1 C1.03 4.96 1.03 4.96 -2 9 C-2.99 8.67 -3.98 8.34 -5 8 C-3.35 5.36 -1.7 2.72 0 0 Z " fill="#DEDEDE" transform="translate(981,665)"/>
<path d="M0 0 C0.99 0.33 1.98 0.66 3 1 C1.02 3.31 -0.96 5.62 -3 8 C-4.32 7.67 -5.64 7.34 -7 7 C-4.66666667 4.66666667 -2.33333333 2.33333333 0 0 Z " fill="#E1E1E1" transform="translate(975,665)"/>
<path d="M0 0 C2.05078125 0.03255208 4.1015625 0.06510417 6.15234375 0.09765625 C6.15234375 0.42765625 6.15234375 0.75765625 6.15234375 1.09765625 C4.50234375 1.42765625 2.85234375 1.75765625 1.15234375 2.09765625 C0.82234375 3.74765625 0.49234375 5.39765625 0.15234375 7.09765625 C-1.49765625 7.09765625 -3.14765625 7.09765625 -4.84765625 7.09765625 C-2.62675581 0.13883487 -2.62675581 0.13883487 0 0 Z " fill="#222222" transform="translate(882.84765625,661.90234375)"/>
<path d="M0 0 C0.66 0 1.32 0 2 0 C2 4.62 2 9.24 2 14 C1.34 14 0.68 14 0 14 C0 10.37 0 6.74 0 3 C-0.66 2.67 -1.32 2.34 -2 2 C-1.34 1.34 -0.68 0.68 0 0 Z " fill="#FBFBFB" transform="translate(714,660)"/>
<path d="M0 0 C2 0 2 0 4.625 2.3125 C7 5 7 5 7 8 C6.01 8 5.02 8 4 8 C4 7.34 4 6.68 4 6 C3.0409375 5.566875 3.0409375 5.566875 2.0625 5.125 C0 4 0 4 -1 2 C-0.67 1.34 -0.34 0.68 0 0 Z " fill="#DFDFDF" transform="translate(932,654)"/>
<path d="M0 0 C2.31 0 4.62 0 7 0 C7 3.63 7 7.26 7 11 C6.34 11 5.68 11 5 11 C5 8.03 5 5.06 5 2 C3.35 1.67 1.7 1.34 0 1 C0 0.67 0 0.34 0 0 Z " fill="#FCFCFC" transform="translate(779,653)"/>
<path d="M0 0 C0 0.66 0 1.32 0 2 C-0.66 2 -1.32 2 -2 2 C-2 5.3 -2 8.6 -2 12 C-1.01 12 -0.02 12 1 12 C1 12.66 1 13.32 1 14 C-1.31 14 -3.62 14 -6 14 C-5.01 13.67 -4.02 13.34 -3 13 C-3 9.37 -3 5.74 -3 2 C-3.66 1.67 -4.32 1.34 -5 1 C-3 0 -3 0 0 0 Z " fill="#505050" transform="translate(818,653)"/>
<path d="M0 0 C1.98 0.66 3.96 1.32 6 2 C5.67 2.99 5.34 3.98 5 5 C3.02 5 1.04 5 -1 5 C-1 1 -1 1 0 0 Z " fill="#E8E8E8" transform="translate(330,667)"/>
<path d="M0 0 C0 0.99 0 1.98 0 3 C-2.31 3.33 -4.62 3.66 -7 4 C-7.33 3.01 -7.66 2.02 -8 1 C-2.25 -1.125 -2.25 -1.125 0 0 Z " fill="#CACACA" transform="translate(923,670)"/>
<path d="M0 0 C0.66 0 1.32 0 2 0 C1.34 2.31 0.68 4.62 0 7 C-1.32 7 -2.64 7 -4 7 C-2.92598892 4.08482708 -2.22189824 2.22189824 0 0 Z " fill="#DEDEDE" transform="translate(722,666)"/>
<path d="M0 0 C0.66 0.33 1.32 0.66 2 1 C0.9024777 3.99324263 0.32317108 4.84610901 -2.625 6.25 C-3.40875 6.4975 -4.1925 6.745 -5 7 C-5 6.01 -5 5.02 -5 4 C-2.5 1.8125 -2.5 1.8125 0 0 Z " fill="#E6E6E6" transform="translate(922,655)"/>
<path d="M0 0 C0.66 0 1.32 0 2 0 C2 0.99 2 1.98 2 3 C2.66 3.66 3.32 4.32 4 5 C1.6875 6.5625 1.6875 6.5625 -1 8 C-1.99 7.67 -2.98 7.34 -4 7 C-3.34 6.030625 -2.68 5.06125 -2 4.0625 C0.09113148 1.4700747 0.09113148 1.4700747 0 0 Z " fill="#CACACA" transform="translate(970,660)"/>
<path d="M0 0 C-0.98652984 3.31832766 -1.68731503 4.76548627 -4.5 6.875 C-5.325 7.24625 -6.15 7.6175 -7 8 C-7.66 7.67 -8.32 7.34 -9 7 C-7.88121617 5.82737096 -6.75476949 4.66204862 -5.625 3.5 C-4.68527344 2.52546875 -4.68527344 2.52546875 -3.7265625 1.53125 C-2 0 -2 0 0 0 Z " fill="#2E2E2E" transform="translate(981,665)"/>
<path d="M0 0 C0.99 0.99 1.98 1.98 3 3 C2.77669287 6.64734979 2.61627165 8.38372835 0 11 C0 7.37 0 3.74 0 0 Z " fill="#282828" transform="translate(717,662)"/>
<path d="M0 0 C0.66 0.33 1.32 0.66 2 1 C2 1.99 2 2.98 2 4 C0.35 4.66 -1.3 5.32 -3 6 C-3 5.34 -3 4.68 -3 4 C-5.64 4 -8.28 4 -11 4 C-11 3.67 -11 3.34 -11 3 C-10.37351562 2.95101562 -9.74703125 2.90203125 -9.1015625 2.8515625 C-8.28429687 2.77679687 -7.46703125 2.70203125 -6.625 2.625 C-5.81289063 2.55539062 -5.00078125 2.48578125 -4.1640625 2.4140625 C-1.79665809 2.17107412 -1.79665809 2.17107412 0 0 Z " fill="#C9C9C9" transform="translate(566,665)"/>
<path d="M0 0 C1.98 0 3.96 0 6 0 C6 1.98 6 3.96 6 6 C4.68 6 3.36 6 2 6 C2 4.68 2 3.36 2 2 C1.34 1.34 0.68 0.68 0 0 Z " fill="#8B8B8B" transform="translate(819,649)"/>
<path d="M0 0 C0.99 0 1.98 0 3 0 C3 4 3 4 1.625 5.75 C0 7 0 7 -2 7 C-2.33 6.01 -2.66 5.02 -3 4 C-1.75 1.8125 -1.75 1.8125 0 0 Z " fill="#EDEDED" transform="translate(827,648)"/>
<path d="M0 0 C0.33 0.66 0.66 1.32 1 2 C3.31 2 5.62 2 8 2 C4.36576791 4.32590854 1.22911669 4.16265833 -3 4 C-3 3.34 -3 2.68 -3 2 C-2.01 1.34 -1.02 0.68 0 0 Z " fill="#FBFBFB" transform="translate(876,668)"/>
<path d="M0 0 C0.66 0 1.32 0 2 0 C1.47731534 2.76276177 0.89130413 5.3260876 0 8 C-0.99 8.33 -1.98 8.66 -3 9 C-2.44271087 5.65626525 -1.64826111 2.96687001 0 0 Z " fill="#EBEBEB" transform="translate(775,657)"/>
<path d="M0 0 C2.16874252 0.50603992 3.99967627 0.99983813 6 2 C5.67 2.99 5.34 3.98 5 5 C2.13275314 4.42655063 1.1385485 4.1385485 -1 2 C-0.67 1.34 -0.34 0.68 0 0 Z " fill="#CBCBCB" transform="translate(866,648)"/>
<path d="M0 0 C0.66 0 1.32 0 2 0 C2 3.79557881 1.49821059 5.62902617 0 9 C-0.66 9 -1.32 9 -2 9 C-1.125 2.25 -1.125 2.25 0 0 Z " fill="#D7D7D7" transform="translate(712,659)"/>
<path d="M0 0 C0.66 0.33 1.32 0.66 2 1 C1.67 1.99 1.34 2.98 1 4 C0.67 4 0.34 4 0 4 C-0.33 7.3 -0.66 10.6 -1 14 C-1.33 14 -1.66 14 -2 14 C-2.05389087 12.04196493 -2.09274217 10.08351091 -2.125 8.125 C-2.14820313 7.03445313 -2.17140625 5.94390625 -2.1953125 4.8203125 C-2 2 -2 2 0 0 Z " fill="#BCBCBC" transform="translate(769,660)"/>
<path d="M0 0 C1.2065625 0.0309375 1.2065625 0.0309375 2.4375 0.0625 C2.7675 1.3825 3.0975 2.7025 3.4375 4.0625 C2.4475 4.3925 1.4575 4.7225 0.4375 5.0625 C0.1075 4.0725 -0.2225 3.0825 -0.5625 2.0625 C-1.5525 1.7325 -2.5425 1.4025 -3.5625 1.0625 C-2.5625 0.0625 -2.5625 0.0625 0 0 Z " fill="#B3B3B3" transform="translate(922.5625,659.9375)"/>
<path d="M0 0 C2.475 0.495 2.475 0.495 5 1 C5 2.32 5 3.64 5 5 C2.525 4.01 2.525 4.01 0 3 C0 2.01 0 1.02 0 0 Z " fill="#D2D2D2" transform="translate(864,656)"/>
</svg>
